<?xml version="1.0" encoding="utf-8"?><!-- Uploaded to: SVG Repo, www.svgrepo.com, Generator: SVG Repo Mixer Tools -->
<svg width="800px" height="800px" viewBox="0 0 48 48" xmlns="http://www.w3.org/2000/svg"><title>Free Medical icons</title><path d="M41.56,6.44a14.3,14.3,0,0,1,0,20.25l-7.43,7.44L13.88,13.87l7.43-7.43A14.32,14.32,0,0,1,41.56,6.44Z" fill="#a6c7ff"/><path d="M16.57,47.74A16.31,16.31,0,0,1,5,19.9L19.89,5A16.32,16.32,0,1,1,43,28.1L28.11,43A16.29,16.29,0,0,1,16.57,47.74ZM31.43,4.25a12.3,12.3,0,0,0-8.72,3.6L7.85,22.72A12.32,12.32,0,1,0,25.28,40.14L40.14,25.28A12.31,12.31,0,0,0,31.43,4.25Z" fill="#2161ff"/><rect width="48" height="48" fill="none"/></svg>